<mxfile host="app.diagrams.net" modified="2022-05-04T11:32:53.348Z" agent="5.0 (Windows NT 10.0; Win64; x64) AppleWebKit/537.36 (KHTML, like Gecko) Chrome/101.0.4951.41 Safari/537.36 Edg/101.0.1210.32" etag="EHMHsirul0JrAkGA8gvG" version="17.5.0" type="github">
  <diagram id="FPQoGlcJ0cKT3GJvHROS" name="Page-1">
    <mxGraphModel dx="1038" dy="579" grid="1" gridSize="10" guides="1" tooltips="1" connect="1" arrows="1" fold="1" page="1" pageScale="1" pageWidth="850" pageHeight="1100" math="0" shadow="0">
      <root>
        <mxCell id="0" />
        <mxCell id="1" parent="0" />
        <mxCell id="Djf9-vpTPSSfG7s_PVzB-4" value="" style="edgeStyle=orthogonalEdgeStyle;rounded=0;orthogonalLoop=1;jettySize=auto;html=1;" edge="1" parent="1" source="Djf9-vpTPSSfG7s_PVzB-1" target="Djf9-vpTPSSfG7s_PVzB-3">
          <mxGeometry relative="1" as="geometry" />
        </mxCell>
        <mxCell id="Djf9-vpTPSSfG7s_PVzB-1" value="start" style="rounded=1;whiteSpace=wrap;html=1;" vertex="1" parent="1">
          <mxGeometry x="45" y="40" width="90" height="20" as="geometry" />
        </mxCell>
        <mxCell id="Djf9-vpTPSSfG7s_PVzB-6" value="" style="edgeStyle=orthogonalEdgeStyle;rounded=0;orthogonalLoop=1;jettySize=auto;html=1;" edge="1" parent="1" source="Djf9-vpTPSSfG7s_PVzB-3" target="Djf9-vpTPSSfG7s_PVzB-5">
          <mxGeometry relative="1" as="geometry" />
        </mxCell>
        <mxCell id="Djf9-vpTPSSfG7s_PVzB-8" value="" style="edgeStyle=orthogonalEdgeStyle;rounded=0;orthogonalLoop=1;jettySize=auto;html=1;" edge="1" parent="1" source="Djf9-vpTPSSfG7s_PVzB-3" target="Djf9-vpTPSSfG7s_PVzB-7">
          <mxGeometry relative="1" as="geometry">
            <Array as="points">
              <mxPoint x="190" y="130" />
              <mxPoint x="190" y="50" />
            </Array>
          </mxGeometry>
        </mxCell>
        <mxCell id="Djf9-vpTPSSfG7s_PVzB-3" value="TRY" style="shape=process;whiteSpace=wrap;html=1;backgroundOutline=1;" vertex="1" parent="1">
          <mxGeometry x="30" y="100" width="120" height="60" as="geometry" />
        </mxCell>
        <mxCell id="Djf9-vpTPSSfG7s_PVzB-5" value="CATCH" style="shape=process;whiteSpace=wrap;html=1;backgroundOutline=1;" vertex="1" parent="1">
          <mxGeometry x="30" y="220" width="120" height="60" as="geometry" />
        </mxCell>
        <mxCell id="Djf9-vpTPSSfG7s_PVzB-11" value="" style="edgeStyle=orthogonalEdgeStyle;rounded=0;orthogonalLoop=1;jettySize=auto;html=1;" edge="1" parent="1" source="Djf9-vpTPSSfG7s_PVzB-7" target="Djf9-vpTPSSfG7s_PVzB-10">
          <mxGeometry relative="1" as="geometry" />
        </mxCell>
        <mxCell id="Djf9-vpTPSSfG7s_PVzB-7" value="Construct char stop anim req object" style="whiteSpace=wrap;html=1;" vertex="1" parent="1">
          <mxGeometry x="210" y="30" width="120" height="60" as="geometry" />
        </mxCell>
        <mxCell id="Djf9-vpTPSSfG7s_PVzB-17" value="" style="edgeStyle=orthogonalEdgeStyle;rounded=0;orthogonalLoop=1;jettySize=auto;html=1;" edge="1" parent="1" source="Djf9-vpTPSSfG7s_PVzB-10" target="Djf9-vpTPSSfG7s_PVzB-15">
          <mxGeometry relative="1" as="geometry" />
        </mxCell>
        <mxCell id="Djf9-vpTPSSfG7s_PVzB-10" value="call&amp;nbsp;setAnimation" style="rounded=1;whiteSpace=wrap;html=1;fillColor=#f8cecc;gradientColor=#ea6b66;strokeColor=#b85450;" vertex="1" parent="1">
          <mxGeometry x="210" y="120" width="120" height="60" as="geometry" />
        </mxCell>
        <mxCell id="Djf9-vpTPSSfG7s_PVzB-18" value="" style="edgeStyle=orthogonalEdgeStyle;rounded=0;orthogonalLoop=1;jettySize=auto;html=1;" edge="1" parent="1" source="Djf9-vpTPSSfG7s_PVzB-15" target="Djf9-vpTPSSfG7s_PVzB-16">
          <mxGeometry relative="1" as="geometry" />
        </mxCell>
        <mxCell id="Djf9-vpTPSSfG7s_PVzB-15" value="getAgentPosition of target" style="rounded=1;whiteSpace=wrap;html=1;fillColor=#ffcc99;strokeColor=#36393d;" vertex="1" parent="1">
          <mxGeometry x="210" y="220" width="120" height="60" as="geometry" />
        </mxCell>
        <mxCell id="Djf9-vpTPSSfG7s_PVzB-20" value="" style="edgeStyle=orthogonalEdgeStyle;rounded=0;orthogonalLoop=1;jettySize=auto;html=1;" edge="1" parent="1" source="Djf9-vpTPSSfG7s_PVzB-16" target="Djf9-vpTPSSfG7s_PVzB-19">
          <mxGeometry relative="1" as="geometry" />
        </mxCell>
        <mxCell id="Djf9-vpTPSSfG7s_PVzB-16" value="getAgentPosition of npc" style="rounded=1;whiteSpace=wrap;html=1;fillColor=#ffcc99;strokeColor=#36393d;" vertex="1" parent="1">
          <mxGeometry x="210" y="310" width="120" height="60" as="geometry" />
        </mxCell>
        <mxCell id="Djf9-vpTPSSfG7s_PVzB-22" value="" style="edgeStyle=orthogonalEdgeStyle;rounded=0;orthogonalLoop=1;jettySize=auto;html=1;" edge="1" parent="1" source="Djf9-vpTPSSfG7s_PVzB-19" target="Djf9-vpTPSSfG7s_PVzB-21">
          <mxGeometry relative="1" as="geometry" />
        </mxCell>
        <mxCell id="Djf9-vpTPSSfG7s_PVzB-19" value="call&amp;nbsp;angleBetween&lt;br&gt;TwoPoints" style="rounded=1;whiteSpace=wrap;html=1;fillColor=#f8cecc;gradientColor=#ea6b66;strokeColor=#b85450;" vertex="1" parent="1">
          <mxGeometry x="210" y="410" width="120" height="60" as="geometry" />
        </mxCell>
        <mxCell id="Djf9-vpTPSSfG7s_PVzB-24" style="edgeStyle=orthogonalEdgeStyle;rounded=0;orthogonalLoop=1;jettySize=auto;html=1;entryX=0.5;entryY=0;entryDx=0;entryDy=0;" edge="1" parent="1" source="Djf9-vpTPSSfG7s_PVzB-21" target="Djf9-vpTPSSfG7s_PVzB-23">
          <mxGeometry relative="1" as="geometry" />
        </mxCell>
        <mxCell id="Djf9-vpTPSSfG7s_PVzB-21" value="set agent max spd 0" style="rounded=1;whiteSpace=wrap;html=1;fillColor=#ffcc99;strokeColor=#36393d;" vertex="1" parent="1">
          <mxGeometry x="210" y="510" width="120" height="60" as="geometry" />
        </mxCell>
        <mxCell id="Djf9-vpTPSSfG7s_PVzB-26" value="" style="edgeStyle=orthogonalEdgeStyle;rounded=0;orthogonalLoop=1;jettySize=auto;html=1;" edge="1" parent="1" source="Djf9-vpTPSSfG7s_PVzB-23" target="Djf9-vpTPSSfG7s_PVzB-25">
          <mxGeometry relative="1" as="geometry" />
        </mxCell>
        <mxCell id="Djf9-vpTPSSfG7s_PVzB-23" value="TIMEOUT 0.5 sec" style="rhombus;whiteSpace=wrap;html=1;" vertex="1" parent="1">
          <mxGeometry x="410" y="50" width="80" height="80" as="geometry" />
        </mxCell>
        <mxCell id="Djf9-vpTPSSfG7s_PVzB-28" value="" style="edgeStyle=orthogonalEdgeStyle;rounded=0;orthogonalLoop=1;jettySize=auto;html=1;" edge="1" parent="1" source="Djf9-vpTPSSfG7s_PVzB-25" target="Djf9-vpTPSSfG7s_PVzB-27">
          <mxGeometry relative="1" as="geometry" />
        </mxCell>
        <mxCell id="Djf9-vpTPSSfG7s_PVzB-25" value="set agent idle animation" style="whiteSpace=wrap;html=1;" vertex="1" parent="1">
          <mxGeometry x="390" y="170" width="120" height="60" as="geometry" />
        </mxCell>
        <mxCell id="Djf9-vpTPSSfG7s_PVzB-30" value="" style="edgeStyle=orthogonalEdgeStyle;rounded=0;orthogonalLoop=1;jettySize=auto;html=1;" edge="1" parent="1" source="Djf9-vpTPSSfG7s_PVzB-27" target="Djf9-vpTPSSfG7s_PVzB-29">
          <mxGeometry relative="1" as="geometry" />
        </mxCell>
        <mxCell id="Djf9-vpTPSSfG7s_PVzB-27" value="IF stop search and dmg type poe" style="rhombus;whiteSpace=wrap;html=1;" vertex="1" parent="1">
          <mxGeometry x="410" y="270" width="80" height="80" as="geometry" />
        </mxCell>
        <mxCell id="Djf9-vpTPSSfG7s_PVzB-32" value="" style="edgeStyle=orthogonalEdgeStyle;rounded=0;orthogonalLoop=1;jettySize=auto;html=1;" edge="1" parent="1" source="Djf9-vpTPSSfG7s_PVzB-29" target="Djf9-vpTPSSfG7s_PVzB-31">
          <mxGeometry relative="1" as="geometry" />
        </mxCell>
        <mxCell id="Djf9-vpTPSSfG7s_PVzB-29" value="set stop search as true" style="whiteSpace=wrap;html=1;" vertex="1" parent="1">
          <mxGeometry x="390" y="390" width="120" height="60" as="geometry" />
        </mxCell>
        <mxCell id="Djf9-vpTPSSfG7s_PVzB-34" style="edgeStyle=orthogonalEdgeStyle;rounded=0;orthogonalLoop=1;jettySize=auto;html=1;entryX=0.5;entryY=0;entryDx=0;entryDy=0;" edge="1" parent="1" source="Djf9-vpTPSSfG7s_PVzB-31" target="Djf9-vpTPSSfG7s_PVzB-33">
          <mxGeometry relative="1" as="geometry" />
        </mxCell>
        <mxCell id="Djf9-vpTPSSfG7s_PVzB-31" value="call&amp;nbsp;addIdToLocked&lt;br&gt;Target" style="rounded=1;whiteSpace=wrap;html=1;fillColor=#f8cecc;gradientColor=#ea6b66;strokeColor=#b85450;" vertex="1" parent="1">
          <mxGeometry x="390" y="480" width="120" height="60" as="geometry" />
        </mxCell>
        <mxCell id="Djf9-vpTPSSfG7s_PVzB-36" value="" style="edgeStyle=orthogonalEdgeStyle;rounded=0;orthogonalLoop=1;jettySize=auto;html=1;" edge="1" parent="1" source="Djf9-vpTPSSfG7s_PVzB-33" target="Djf9-vpTPSSfG7s_PVzB-35">
          <mxGeometry relative="1" as="geometry" />
        </mxCell>
        <mxCell id="Djf9-vpTPSSfG7s_PVzB-33" value="FOR all locked target" style="rhombus;whiteSpace=wrap;html=1;" vertex="1" parent="1">
          <mxGeometry x="570" y="50" width="80" height="80" as="geometry" />
        </mxCell>
        <mxCell id="Djf9-vpTPSSfG7s_PVzB-38" value="" style="edgeStyle=orthogonalEdgeStyle;rounded=0;orthogonalLoop=1;jettySize=auto;html=1;" edge="1" parent="1" source="Djf9-vpTPSSfG7s_PVzB-35" target="Djf9-vpTPSSfG7s_PVzB-37">
          <mxGeometry relative="1" as="geometry" />
        </mxCell>
        <mxCell id="Djf9-vpTPSSfG7s_PVzB-35" value="set the locked status true" style="whiteSpace=wrap;html=1;" vertex="1" parent="1">
          <mxGeometry x="550" y="170" width="120" height="60" as="geometry" />
        </mxCell>
        <mxCell id="Djf9-vpTPSSfG7s_PVzB-40" value="yes" style="edgeStyle=orthogonalEdgeStyle;rounded=0;orthogonalLoop=1;jettySize=auto;html=1;" edge="1" parent="1" source="Djf9-vpTPSSfG7s_PVzB-37" target="Djf9-vpTPSSfG7s_PVzB-39">
          <mxGeometry relative="1" as="geometry" />
        </mxCell>
        <mxCell id="Djf9-vpTPSSfG7s_PVzB-42" value="no" style="edgeStyle=orthogonalEdgeStyle;rounded=0;orthogonalLoop=1;jettySize=auto;html=1;" edge="1" parent="1" source="Djf9-vpTPSSfG7s_PVzB-37" target="Djf9-vpTPSSfG7s_PVzB-41">
          <mxGeometry relative="1" as="geometry" />
        </mxCell>
        <mxCell id="Djf9-vpTPSSfG7s_PVzB-37" value="IF char hitspd and dmg type" style="rhombus;whiteSpace=wrap;html=1;" vertex="1" parent="1">
          <mxGeometry x="570" y="280" width="80" height="80" as="geometry" />
        </mxCell>
        <mxCell id="Djf9-vpTPSSfG7s_PVzB-46" value="" style="edgeStyle=orthogonalEdgeStyle;rounded=0;orthogonalLoop=1;jettySize=auto;html=1;" edge="1" parent="1" source="Djf9-vpTPSSfG7s_PVzB-39" target="Djf9-vpTPSSfG7s_PVzB-45">
          <mxGeometry relative="1" as="geometry" />
        </mxCell>
        <mxCell id="Djf9-vpTPSSfG7s_PVzB-39" value="call&amp;nbsp;giveDmgImpact" style="rounded=1;whiteSpace=wrap;html=1;fillColor=#f8cecc;gradientColor=#ea6b66;strokeColor=#b85450;" vertex="1" parent="1">
          <mxGeometry x="550" y="390" width="120" height="60" as="geometry" />
        </mxCell>
        <mxCell id="Djf9-vpTPSSfG7s_PVzB-44" value="" style="edgeStyle=orthogonalEdgeStyle;rounded=0;orthogonalLoop=1;jettySize=auto;html=1;" edge="1" parent="1" source="Djf9-vpTPSSfG7s_PVzB-41" target="Djf9-vpTPSSfG7s_PVzB-43">
          <mxGeometry relative="1" as="geometry" />
        </mxCell>
        <mxCell id="Djf9-vpTPSSfG7s_PVzB-41" value="ELSE" style="rhombus;whiteSpace=wrap;html=1;" vertex="1" parent="1">
          <mxGeometry x="690" y="280" width="80" height="80" as="geometry" />
        </mxCell>
        <mxCell id="Djf9-vpTPSSfG7s_PVzB-43" value="User console" style="whiteSpace=wrap;html=1;" vertex="1" parent="1">
          <mxGeometry x="680" y="390" width="120" height="60" as="geometry" />
        </mxCell>
        <mxCell id="Djf9-vpTPSSfG7s_PVzB-45" value="end" style="ellipse;whiteSpace=wrap;html=1;" vertex="1" parent="1">
          <mxGeometry x="565" y="490" width="90" height="50" as="geometry" />
        </mxCell>
      </root>
    </mxGraphModel>
  </diagram>
</mxfile>
